<?xml version="1.0" standalone="no"?>
<!DOCTYPE svg PUBLIC "-//W3C//DTD SVG 20010904//EN"
 "http://www.w3.org/TR/2001/REC-SVG-20010904/DTD/svg10.dtd">
<svg version="1.0" xmlns="http://www.w3.org/2000/svg"
 width="1280.000000pt" height="680.000000pt" viewBox="0 0 1280.000000 680.000000"
 preserveAspectRatio="xMidYMid meet">
<metadata>
Created by potrace 1.15, written by Peter Selinger 2001-2017
</metadata>
<g transform="translate(0.000000,680.000000) scale(0.100000,-0.100000)"
fill="#000000" stroke="none">
<path d="M10150 6414 c-91 -18 -235 -56 -261 -70 -53 -27 -208 -173 -263 -248
-35 -47 -65 -104 -89 -169 -32 -87 -46 -109 -110 -180 -154 -172 -369 -463
-533 -718 -64 -101 -139 -210 -165 -243 -31 -38 -53 -78 -63 -116 l-16 -57
-83 -2 c-146 -3 -278 -22 -318 -47 -61 -38 -128 -121 -143 -178 -15 -53 -78
-1330 -80 -1604 l-1 -134 -17 39 c-10 21 -18 44 -18 52 0 35 -537 1455 -584
1545 -74 143 -124 195 -230 236 -74 28 -98 33 -183 34 -81 1 -104 -2 -131 -19
-40 -24 -95 -114 -121 -200 -12 -38 -62 -373 -123 -825 -86 -639 -105 -760
-118 -758 -25 5 -69 108 -90 213 -10 55 -35 150 -54 210 -20 61 -103 337 -187
615 -83 278 -162 531 -177 563 -45 102 -144 157 -283 157 -89 0 -133 -19 -159
-70 -13 -26 -34 -125 -61 -297 -22 -142 -43 -265 -47 -273 -3 -8 -11 41 -17
110 -12 119 -15 131 -64 233 -36 77 -65 122 -100 156 -88 88 -73 86 -436 89
-363 3 -494 -7 -813 -64 -205 -37 -330 -77 -435 -140 -42 -24 -97 -43 -190
-65 -191 -46 -371 -121 -797 -334 -106 -53 -227 -109 -269 -125 -42 -16 -98
-38 -125 -50 -81 -37 -289 -80 -382 -80 -112 0 -277 18 -344 37 -194 55 -454
192 -585 309 -107 94 -219 184 -230 184 -5 0 -32 22 -60 50 -47 46 -55 50
-124 61 -46 7 -77 7 -83 1 -16 -16 12 -61 117 -194 55 -69 125 -159 155 -200
76 -103 433 -386 610 -484 154 -84 230 -103 416 -104 259 0 478 61 978 274
137 58 257 108 267 111 32 11 21 -18 -16 -42 -43 -28 -60 -60 -81 -153 -20
-87 -14 -131 32 -258 42 -116 95 -214 190 -353 81 -116 91 -138 105 -219 21
-115 50 -196 91 -246 106 -132 115 -172 65 -291 -19 -46 -48 -100 -65 -120
-34 -44 -63 -100 -82 -160 -11 -36 -11 -50 3 -98 20 -70 59 -139 93 -162 51
-35 62 -52 75 -110 12 -54 18 -64 104 -148 111 -109 150 -163 215 -294 27 -55
61 -118 74 -140 14 -22 34 -63 44 -93 11 -29 35 -88 55 -131 29 -66 43 -84 86
-114 44 -31 63 -37 139 -46 76 -9 93 -8 121 6 26 13 42 15 75 7 54 -13 208
-13 241 0 14 5 28 18 32 27 9 24 23 33 53 33 63 1 105 93 65 146 -20 27 -19
34 8 34 13 0 32 9 42 20 17 19 17 20 -18 35 -20 8 -46 15 -57 15 -11 0 -20 6
-20 14 0 18 -22 26 -68 26 -66 0 -242 46 -249 66 -2 6 26 16 64 24 81 16 154
60 146 88 -5 22 38 62 67 62 10 0 23 6 29 14 21 25 -3 53 -51 61 -24 4 -98 27
-166 51 -70 25 -141 44 -165 44 -101 0 -164 40 -204 129 -40 91 -32 111 104
270 64 75 135 154 159 176 44 42 74 91 74 122 0 10 30 48 66 83 75 75 106 128
124 220 21 104 33 109 138 56 194 -98 238 -115 331 -130 116 -20 178 -20 350
-1 128 13 135 15 167 46 39 37 57 101 48 167 -4 36 19 187 101 642 131 729
121 678 128 660 3 -8 83 -303 177 -655 195 -729 201 -749 241 -828 34 -66 136
-211 176 -252 59 -58 140 -83 236 -71 46 6 64 15 113 57 90 76 97 95 160 462
30 177 77 455 105 617 28 162 68 396 90 520 21 124 39 228 39 233 0 4 5 7 10
7 6 0 10 -7 10 -15 0 -22 626 -1688 660 -1754 32 -64 119 -139 186 -161 80
-27 292 7 371 57 39 26 105 159 110 225 3 32 9 58 12 58 3 0 32 -17 64 -38
l59 -37 28 -110 c30 -117 53 -261 55 -335 0 -25 6 -58 13 -73 7 -16 12 -37 12
-48 0 -10 9 -24 20 -31 16 -10 18 -20 13 -53 -4 -32 -1 -46 13 -59 16 -17 16
-20 1 -50 -26 -50 -30 -91 -13 -124 18 -35 33 -42 92 -42 l44 0 0 -43 c0 -24
14 -90 30 -148 17 -57 37 -126 44 -154 7 -27 20 -62 29 -76 17 -25 21 -26 85
-21 49 3 77 0 98 -11 31 -16 191 -35 308 -37 55 -1 73 3 90 18 12 11 37 27 56
37 19 10 42 22 50 26 24 14 33 17 73 24 26 4 37 11 37 23 0 22 -117 123 -158
137 -18 6 -49 35 -76 70 -54 69 -90 87 -165 83 -63 -3 -61 -5 -106 117 -14 39
-31 80 -37 91 -7 16 -7 32 0 55 6 19 11 72 11 119 0 47 4 108 9 137 6 37 5 58
-4 75 -14 25 -19 210 -8 268 5 24 22 43 68 78 55 42 542 544 647 667 53 63 64
90 101 250 21 88 33 175 38 270 7 109 14 156 34 214 14 41 26 89 26 107 l0 33
54 -3 54 -4 51 74 c53 76 60 100 39 134 -11 17 -8 30 20 85 30 62 32 72 32
175 0 107 1 110 37 172 20 35 94 124 169 203 128 136 136 142 257 208 l125 67
69 -6 c54 -5 76 -3 101 10 38 19 188 22 293 4 127 -21 199 -2 428 109 108 53
214 104 236 114 22 11 47 29 55 42 69 108 80 133 80 176 0 52 0 52 -137 129
-39 22 -105 68 -146 102 -67 56 -92 69 -233 123 -118 44 -182 75 -249 120
-192 129 -231 173 -296 332 -44 109 -56 125 -89 125 -18 0 -49 17 -91 51 -86
68 -235 155 -338 196 -146 58 -444 106 -541 87z m-1350 -1608 c0 -17 -92 -176
-102 -176 -12 0 -9 59 3 83 21 41 99 114 99 93z"/>
<path d="M10420 2035 c32 -18 37 -18 44 0 4 12 -3 15 -32 15 l-37 -1 25 -14z"/>
</g>
</svg>
